# xmcd
#
# Track frame offsets:
#	150
#	18045
#	32977
#	44835
#	54435
#	78390
#	92635
#	101402
#	114460
#	126987
#	137332
#	149395
#
# Disc length: 2213 seconds
#
# Revision: 0
# Processed by: cddbd v1.5.1PL2 Copyright (c) Steve Scherf et al.
# Submitted via: dBpowerAMP V4.0
#
DISCID=9d08a30c
DTITLE=Various Artist - Templo da bossa
DYEAR=1900
DGENRE=bossa nova
TTITLE0=Preconceito - Yvette
TTITLE1=Só tinha de ser com você - Toquinho
TTITLE2=Pedro pedreiro - Chico Buarque de Hollanda
TTITLE3=Sem Deus, com a família - César Roldão Vieira
TTITLE4=Maria Moita - Bossa Jazz Trio
TTITLE5=Onde está você - Paulinho Nogueira e Toquinho
TTITLE6=Canção do amanhecer - Yvette
TTITLE7=Primavera - Toquinho
TTITLE8=Sonho de um carnaval - Chico Buarque
TTITLE9=Zé do trem - César Roldão Vieira
TTITLE10=Amanhã - Walter Santos
TTITLE11=Aleluia - Edú Lobo e Yvette
EXTD=
EXTT0=
EXTT1=
EXTT2=
EXTT3=
EXTT4=
EXTT5=
EXTT6=
EXTT7=
EXTT8=
EXTT9=
EXTT10=
EXTT11=
PLAYORDER=
